<mxfile host="Electron" agent="Mozilla/5.0 (Windows NT 10.0; Win64; x64) AppleWebKit/537.36 (KHTML, like Gecko) draw.io/28.1.2 Chrome/138.0.7204.243 Electron/37.4.0 Safari/537.36" version="28.1.2">
  <diagram id="FjjNetMvKVPHb-UHfC16" name="Page-1">
    <mxGraphModel dx="1042" dy="674" grid="1" gridSize="10" guides="1" tooltips="1" connect="1" arrows="1" fold="1" page="1" pageScale="1" pageWidth="850" pageHeight="1100" math="0" shadow="0">
      <root>
        <mxCell id="0" />
        <mxCell id="1" parent="0" />
        <mxCell id="30Ck4stNxUJS0GwcEBdK-6" value="" style="rounded=0;whiteSpace=wrap;html=1;dashed=1;dashPattern=8 8;fillColor=none;" vertex="1" parent="1">
          <mxGeometry x="94.5" y="110" width="120" height="420" as="geometry" />
        </mxCell>
        <mxCell id="30Ck4stNxUJS0GwcEBdK-1" value="" style="image;aspect=fixed;html=1;points=[];align=center;fontSize=12;image=img/lib/azure2/general/Folder_Blank.svg;" vertex="1" parent="1">
          <mxGeometry x="120" y="397" width="69" height="56.00000000000001" as="geometry" />
        </mxCell>
        <mxCell id="30Ck4stNxUJS0GwcEBdK-2" value="" style="image;aspect=fixed;html=1;points=[];align=center;fontSize=12;image=img/lib/azure2/general/Folder_Blank.svg;" vertex="1" parent="1">
          <mxGeometry x="120" y="190" width="69" height="56.00000000000001" as="geometry" />
        </mxCell>
        <mxCell id="30Ck4stNxUJS0GwcEBdK-4" value="&lt;b&gt;&lt;font style=&quot;font-size: 20px;&quot;&gt;CRM&lt;/font&gt;&lt;/b&gt;" style="text;strokeColor=none;align=center;fillColor=none;html=1;verticalAlign=middle;whiteSpace=wrap;rounded=0;" vertex="1" parent="1">
          <mxGeometry x="124.5" y="253" width="60" height="30" as="geometry" />
        </mxCell>
        <mxCell id="30Ck4stNxUJS0GwcEBdK-5" value="&lt;b&gt;&lt;font style=&quot;font-size: 20px;&quot;&gt;ERP&lt;/font&gt;&lt;/b&gt;" style="text;strokeColor=none;align=center;fillColor=none;html=1;verticalAlign=middle;whiteSpace=wrap;rounded=0;" vertex="1" parent="1">
          <mxGeometry x="124.51" y="450" width="60" height="30" as="geometry" />
        </mxCell>
        <mxCell id="30Ck4stNxUJS0GwcEBdK-7" value="&lt;font style=&quot;font-size: 20px;&quot;&gt;Sources&lt;/font&gt;" style="rounded=0;whiteSpace=wrap;html=1;" vertex="1" parent="1">
          <mxGeometry x="111.63" y="100" width="85.75" height="30" as="geometry" />
        </mxCell>
        <mxCell id="30Ck4stNxUJS0GwcEBdK-10" value="&lt;font style=&quot;font-size: 20px;&quot;&gt;Bronze Layer&lt;/font&gt;" style="rounded=1;whiteSpace=wrap;html=1;fillColor=#ffe6cc;strokeColor=#d79b00;" vertex="1" parent="1">
          <mxGeometry x="300" y="100" width="160" height="30" as="geometry" />
        </mxCell>
        <mxCell id="30Ck4stNxUJS0GwcEBdK-20" value="" style="rounded=1;whiteSpace=wrap;html=1;fillColor=none;strokeColor=#d79b00;" vertex="1" parent="1">
          <mxGeometry x="290" y="135" width="180" height="395" as="geometry" />
        </mxCell>
        <mxCell id="30Ck4stNxUJS0GwcEBdK-11" value="&lt;font style=&quot;font-size: 14px;&quot;&gt;crm_sales_setails&lt;/font&gt;" style="rounded=1;whiteSpace=wrap;html=1;fillColor=#ffe6cc;strokeColor=#d79b00;" vertex="1" parent="1">
          <mxGeometry x="310" y="160" width="140" height="30" as="geometry" />
        </mxCell>
        <mxCell id="30Ck4stNxUJS0GwcEBdK-12" value="&lt;font style=&quot;font-size: 14px;&quot;&gt;crm_cust_info&lt;/font&gt;" style="rounded=1;whiteSpace=wrap;html=1;fillColor=#ffe6cc;strokeColor=#d79b00;" vertex="1" parent="1">
          <mxGeometry x="310" y="210" width="140" height="30" as="geometry" />
        </mxCell>
        <mxCell id="30Ck4stNxUJS0GwcEBdK-13" value="&lt;font style=&quot;font-size: 14px;&quot;&gt;crm_prd_info&lt;/font&gt;" style="rounded=1;whiteSpace=wrap;html=1;fillColor=#ffe6cc;strokeColor=#d79b00;" vertex="1" parent="1">
          <mxGeometry x="310" y="260" width="140" height="30" as="geometry" />
        </mxCell>
        <mxCell id="30Ck4stNxUJS0GwcEBdK-17" value="&lt;font style=&quot;font-size: 14px;&quot;&gt;erp_cust_az12&lt;/font&gt;" style="rounded=1;whiteSpace=wrap;html=1;fillColor=#ffe6cc;strokeColor=#d79b00;" vertex="1" parent="1">
          <mxGeometry x="310" y="360" width="140" height="30" as="geometry" />
        </mxCell>
        <mxCell id="30Ck4stNxUJS0GwcEBdK-18" value="&lt;font style=&quot;font-size: 14px;&quot;&gt;erp_loc_a101&lt;/font&gt;" style="rounded=1;whiteSpace=wrap;html=1;fillColor=#ffe6cc;strokeColor=#d79b00;" vertex="1" parent="1">
          <mxGeometry x="310" y="410" width="140" height="30" as="geometry" />
        </mxCell>
        <mxCell id="30Ck4stNxUJS0GwcEBdK-19" value="&lt;font style=&quot;font-size: 14px;&quot;&gt;erp_pd_cat_g1v2&lt;/font&gt;" style="rounded=1;whiteSpace=wrap;html=1;fillColor=#ffe6cc;strokeColor=#d79b00;" vertex="1" parent="1">
          <mxGeometry x="310" y="460" width="140" height="30" as="geometry" />
        </mxCell>
        <mxCell id="30Ck4stNxUJS0GwcEBdK-21" value="&lt;font style=&quot;font-size: 20px;&quot;&gt;Silver Layer&lt;/font&gt;" style="rounded=1;whiteSpace=wrap;html=1;fillColor=#f5f5f5;strokeColor=#666666;fontColor=#333333;" vertex="1" parent="1">
          <mxGeometry x="540" y="100" width="160" height="30" as="geometry" />
        </mxCell>
        <mxCell id="30Ck4stNxUJS0GwcEBdK-22" value="" style="rounded=1;whiteSpace=wrap;html=1;fillColor=none;strokeColor=#666666;fontColor=#333333;" vertex="1" parent="1">
          <mxGeometry x="530" y="135" width="180" height="395" as="geometry" />
        </mxCell>
        <mxCell id="30Ck4stNxUJS0GwcEBdK-23" value="&lt;font style=&quot;font-size: 14px;&quot;&gt;crm_sales_setails&lt;/font&gt;" style="rounded=1;whiteSpace=wrap;html=1;fillColor=#f5f5f5;strokeColor=#666666;fontColor=#333333;" vertex="1" parent="1">
          <mxGeometry x="550" y="160" width="140" height="30" as="geometry" />
        </mxCell>
        <mxCell id="30Ck4stNxUJS0GwcEBdK-24" value="&lt;font style=&quot;font-size: 14px;&quot;&gt;crm_cust_info&lt;/font&gt;" style="rounded=1;whiteSpace=wrap;html=1;fillColor=#f5f5f5;strokeColor=#666666;fontColor=#333333;" vertex="1" parent="1">
          <mxGeometry x="550" y="210" width="140" height="30" as="geometry" />
        </mxCell>
        <mxCell id="30Ck4stNxUJS0GwcEBdK-25" value="&lt;font style=&quot;font-size: 14px;&quot;&gt;crm_prd_info&lt;/font&gt;" style="rounded=1;whiteSpace=wrap;html=1;fillColor=#f5f5f5;strokeColor=#666666;fontColor=#333333;" vertex="1" parent="1">
          <mxGeometry x="550" y="260" width="140" height="30" as="geometry" />
        </mxCell>
        <mxCell id="30Ck4stNxUJS0GwcEBdK-26" value="&lt;font style=&quot;font-size: 14px;&quot;&gt;erp_cust_az12&lt;/font&gt;" style="rounded=1;whiteSpace=wrap;html=1;fillColor=#f5f5f5;strokeColor=#666666;fontColor=#333333;" vertex="1" parent="1">
          <mxGeometry x="550" y="360" width="140" height="30" as="geometry" />
        </mxCell>
        <mxCell id="30Ck4stNxUJS0GwcEBdK-27" value="&lt;font style=&quot;font-size: 14px;&quot;&gt;erp_loc_a101&lt;/font&gt;" style="rounded=1;whiteSpace=wrap;html=1;fillColor=#f5f5f5;strokeColor=#666666;fontColor=#333333;" vertex="1" parent="1">
          <mxGeometry x="550" y="410" width="140" height="30" as="geometry" />
        </mxCell>
        <mxCell id="30Ck4stNxUJS0GwcEBdK-28" value="&lt;font style=&quot;font-size: 14px;&quot;&gt;erp_pd_cat_g1v2&lt;/font&gt;" style="rounded=1;whiteSpace=wrap;html=1;fillColor=#f5f5f5;strokeColor=#666666;fontColor=#333333;" vertex="1" parent="1">
          <mxGeometry x="550" y="460" width="140" height="30" as="geometry" />
        </mxCell>
        <mxCell id="30Ck4stNxUJS0GwcEBdK-29" value="&lt;font style=&quot;font-size: 20px;&quot;&gt;Gold Layer&lt;/font&gt;" style="rounded=1;whiteSpace=wrap;html=1;fillColor=#fff2cc;strokeColor=#d6b656;" vertex="1" parent="1">
          <mxGeometry x="820" y="100" width="160" height="30" as="geometry" />
        </mxCell>
        <mxCell id="30Ck4stNxUJS0GwcEBdK-30" value="" style="rounded=1;whiteSpace=wrap;html=1;fillColor=none;strokeColor=#d6b656;" vertex="1" parent="1">
          <mxGeometry x="810" y="135" width="180" height="395" as="geometry" />
        </mxCell>
        <mxCell id="30Ck4stNxUJS0GwcEBdK-31" value="&lt;font style=&quot;font-size: 14px;&quot;&gt;fact_sales&lt;/font&gt;" style="rounded=1;whiteSpace=wrap;html=1;fillColor=#fff2cc;strokeColor=#d6b656;" vertex="1" parent="1">
          <mxGeometry x="830" y="230" width="140" height="30" as="geometry" />
        </mxCell>
        <mxCell id="30Ck4stNxUJS0GwcEBdK-32" value="&lt;font style=&quot;font-size: 14px;&quot;&gt;dim_customers&lt;/font&gt;" style="rounded=1;whiteSpace=wrap;html=1;fillColor=#fff2cc;strokeColor=#d6b656;" vertex="1" parent="1">
          <mxGeometry x="830" y="310" width="140" height="30" as="geometry" />
        </mxCell>
        <mxCell id="30Ck4stNxUJS0GwcEBdK-33" value="&lt;span style=&quot;font-size: 14px;&quot;&gt;dim_products&lt;/span&gt;" style="rounded=1;whiteSpace=wrap;html=1;fillColor=#fff2cc;strokeColor=#d6b656;" vertex="1" parent="1">
          <mxGeometry x="830" y="390" width="140" height="30" as="geometry" />
        </mxCell>
        <mxCell id="30Ck4stNxUJS0GwcEBdK-40" value="" style="endArrow=classic;html=1;rounded=0;" edge="1" parent="1">
          <mxGeometry width="50" height="50" relative="1" as="geometry">
            <mxPoint x="250" y="424.9" as="sourcePoint" />
            <mxPoint x="310" y="424.9" as="targetPoint" />
          </mxGeometry>
        </mxCell>
        <mxCell id="30Ck4stNxUJS0GwcEBdK-42" value="" style="endArrow=classic;html=1;rounded=0;" edge="1" parent="1">
          <mxGeometry width="50" height="50" relative="1" as="geometry">
            <mxPoint x="250" y="480" as="sourcePoint" />
            <mxPoint x="310" y="480" as="targetPoint" />
          </mxGeometry>
        </mxCell>
        <mxCell id="30Ck4stNxUJS0GwcEBdK-43" value="" style="endArrow=none;html=1;rounded=0;" edge="1" parent="1">
          <mxGeometry width="50" height="50" relative="1" as="geometry">
            <mxPoint x="250" y="480" as="sourcePoint" />
            <mxPoint x="250" y="370" as="targetPoint" />
            <Array as="points" />
          </mxGeometry>
        </mxCell>
        <mxCell id="30Ck4stNxUJS0GwcEBdK-44" value="" style="endArrow=none;html=1;rounded=0;" edge="1" parent="1">
          <mxGeometry width="50" height="50" relative="1" as="geometry">
            <mxPoint x="189" y="425.17035856573705" as="sourcePoint" />
            <mxPoint x="250" y="424.82" as="targetPoint" />
          </mxGeometry>
        </mxCell>
        <mxCell id="30Ck4stNxUJS0GwcEBdK-51" value="" style="endArrow=classic;html=1;rounded=0;entryX=0.111;entryY=0.114;entryDx=0;entryDy=0;entryPerimeter=0;" edge="1" parent="1">
          <mxGeometry width="50" height="50" relative="1" as="geometry">
            <mxPoint x="450" y="174.83" as="sourcePoint" />
            <mxPoint x="549.98" y="174.85999999999999" as="targetPoint" />
          </mxGeometry>
        </mxCell>
        <mxCell id="30Ck4stNxUJS0GwcEBdK-52" value="" style="endArrow=classic;html=1;rounded=0;entryX=0.111;entryY=0.114;entryDx=0;entryDy=0;entryPerimeter=0;" edge="1" parent="1">
          <mxGeometry width="50" height="50" relative="1" as="geometry">
            <mxPoint x="450.02" y="224.83" as="sourcePoint" />
            <mxPoint x="550" y="224.85999999999999" as="targetPoint" />
          </mxGeometry>
        </mxCell>
        <mxCell id="30Ck4stNxUJS0GwcEBdK-53" value="" style="endArrow=classic;html=1;rounded=0;entryX=0.111;entryY=0.114;entryDx=0;entryDy=0;entryPerimeter=0;" edge="1" parent="1">
          <mxGeometry width="50" height="50" relative="1" as="geometry">
            <mxPoint x="450" y="274.83" as="sourcePoint" />
            <mxPoint x="549.98" y="274.85999999999996" as="targetPoint" />
          </mxGeometry>
        </mxCell>
        <mxCell id="30Ck4stNxUJS0GwcEBdK-54" value="" style="endArrow=classic;html=1;rounded=0;entryX=0.111;entryY=0.114;entryDx=0;entryDy=0;entryPerimeter=0;" edge="1" parent="1">
          <mxGeometry width="50" height="50" relative="1" as="geometry">
            <mxPoint x="450.02" y="374.83" as="sourcePoint" />
            <mxPoint x="550" y="374.85999999999996" as="targetPoint" />
          </mxGeometry>
        </mxCell>
        <mxCell id="30Ck4stNxUJS0GwcEBdK-55" value="" style="endArrow=classic;html=1;rounded=0;entryX=0.111;entryY=0.114;entryDx=0;entryDy=0;entryPerimeter=0;" edge="1" parent="1">
          <mxGeometry width="50" height="50" relative="1" as="geometry">
            <mxPoint x="450.02" y="424.83" as="sourcePoint" />
            <mxPoint x="550" y="424.85999999999996" as="targetPoint" />
          </mxGeometry>
        </mxCell>
        <mxCell id="30Ck4stNxUJS0GwcEBdK-56" value="" style="endArrow=classic;html=1;rounded=0;entryX=0.111;entryY=0.114;entryDx=0;entryDy=0;entryPerimeter=0;" edge="1" parent="1">
          <mxGeometry width="50" height="50" relative="1" as="geometry">
            <mxPoint x="450.02" y="474.83" as="sourcePoint" />
            <mxPoint x="550" y="474.85999999999996" as="targetPoint" />
          </mxGeometry>
        </mxCell>
        <mxCell id="30Ck4stNxUJS0GwcEBdK-58" value="" style="endArrow=classic;html=1;rounded=0;" edge="1" parent="1">
          <mxGeometry width="50" height="50" relative="1" as="geometry">
            <mxPoint x="250" y="370" as="sourcePoint" />
            <mxPoint x="310" y="370" as="targetPoint" />
          </mxGeometry>
        </mxCell>
        <mxCell id="30Ck4stNxUJS0GwcEBdK-62" value="" style="endArrow=classic;html=1;rounded=0;" edge="1" parent="1">
          <mxGeometry width="50" height="50" relative="1" as="geometry">
            <mxPoint x="250" y="224.79999999999998" as="sourcePoint" />
            <mxPoint x="310" y="224.79999999999998" as="targetPoint" />
          </mxGeometry>
        </mxCell>
        <mxCell id="30Ck4stNxUJS0GwcEBdK-63" value="" style="endArrow=classic;html=1;rounded=0;" edge="1" parent="1">
          <mxGeometry width="50" height="50" relative="1" as="geometry">
            <mxPoint x="250" y="279.9" as="sourcePoint" />
            <mxPoint x="310" y="279.9" as="targetPoint" />
          </mxGeometry>
        </mxCell>
        <mxCell id="30Ck4stNxUJS0GwcEBdK-64" value="" style="endArrow=none;html=1;rounded=0;" edge="1" parent="1">
          <mxGeometry width="50" height="50" relative="1" as="geometry">
            <mxPoint x="250" y="279.9" as="sourcePoint" />
            <mxPoint x="250" y="169.9" as="targetPoint" />
            <Array as="points" />
          </mxGeometry>
        </mxCell>
        <mxCell id="30Ck4stNxUJS0GwcEBdK-65" value="" style="endArrow=none;html=1;rounded=0;" edge="1" parent="1">
          <mxGeometry width="50" height="50" relative="1" as="geometry">
            <mxPoint x="189" y="225.07035856573705" as="sourcePoint" />
            <mxPoint x="250" y="224.72" as="targetPoint" />
          </mxGeometry>
        </mxCell>
        <mxCell id="30Ck4stNxUJS0GwcEBdK-66" value="" style="endArrow=classic;html=1;rounded=0;" edge="1" parent="1">
          <mxGeometry width="50" height="50" relative="1" as="geometry">
            <mxPoint x="250" y="169.9" as="sourcePoint" />
            <mxPoint x="310" y="169.9" as="targetPoint" />
          </mxGeometry>
        </mxCell>
        <mxCell id="30Ck4stNxUJS0GwcEBdK-75" value="" style="endArrow=classic;html=1;rounded=0;entryX=0;entryY=0.5;entryDx=0;entryDy=0;jumpStyle=gap;" edge="1" parent="1" target="30Ck4stNxUJS0GwcEBdK-31">
          <mxGeometry width="50" height="50" relative="1" as="geometry">
            <mxPoint x="690" y="180" as="sourcePoint" />
            <mxPoint x="740" y="130" as="targetPoint" />
          </mxGeometry>
        </mxCell>
        <mxCell id="30Ck4stNxUJS0GwcEBdK-77" value="" style="endArrow=classic;html=1;rounded=0;entryX=0;entryY=0.5;entryDx=0;entryDy=0;jumpStyle=gap;" edge="1" parent="1" target="30Ck4stNxUJS0GwcEBdK-32">
          <mxGeometry width="50" height="50" relative="1" as="geometry">
            <mxPoint x="690" y="230" as="sourcePoint" />
            <mxPoint x="740" y="180" as="targetPoint" />
          </mxGeometry>
        </mxCell>
        <mxCell id="30Ck4stNxUJS0GwcEBdK-80" value="" style="endArrow=classic;html=1;rounded=0;entryX=0;entryY=0.5;entryDx=0;entryDy=0;jumpStyle=gap;" edge="1" parent="1" target="30Ck4stNxUJS0GwcEBdK-32">
          <mxGeometry width="50" height="50" relative="1" as="geometry">
            <mxPoint x="690" y="380" as="sourcePoint" />
            <mxPoint x="740" y="330" as="targetPoint" />
          </mxGeometry>
        </mxCell>
        <mxCell id="30Ck4stNxUJS0GwcEBdK-81" value="" style="endArrow=classic;html=1;rounded=0;entryX=0;entryY=0.5;entryDx=0;entryDy=0;jumpStyle=gap;" edge="1" parent="1" target="30Ck4stNxUJS0GwcEBdK-32">
          <mxGeometry width="50" height="50" relative="1" as="geometry">
            <mxPoint x="690" y="430" as="sourcePoint" />
            <mxPoint x="740" y="380" as="targetPoint" />
          </mxGeometry>
        </mxCell>
        <mxCell id="30Ck4stNxUJS0GwcEBdK-82" value="" style="endArrow=classic;html=1;rounded=0;entryX=0;entryY=0.5;entryDx=0;entryDy=0;jumpStyle=gap;" edge="1" parent="1" target="30Ck4stNxUJS0GwcEBdK-33">
          <mxGeometry width="50" height="50" relative="1" as="geometry">
            <mxPoint x="690" y="280" as="sourcePoint" />
            <mxPoint x="740" y="230" as="targetPoint" />
          </mxGeometry>
        </mxCell>
        <mxCell id="30Ck4stNxUJS0GwcEBdK-83" value="" style="endArrow=classic;html=1;rounded=0;entryX=0;entryY=0.5;entryDx=0;entryDy=0;jumpStyle=gap;" edge="1" parent="1" target="30Ck4stNxUJS0GwcEBdK-33">
          <mxGeometry width="50" height="50" relative="1" as="geometry">
            <mxPoint x="690" y="480" as="sourcePoint" />
            <mxPoint x="740" y="430" as="targetPoint" />
          </mxGeometry>
        </mxCell>
      </root>
    </mxGraphModel>
  </diagram>
</mxfile>
